<svg width="1162" height="50" viewBox="0 0 1162 50" fill="none" xmlns="http://www.w3.org/2000/svg">
<path d="M22.202 14.56V37H17.51V14.56H22.202ZM7.616 14.56V37H2.924V14.56H7.616ZM19.958 23.774V27.548H5.27V23.774H19.958ZM33.3328 37.34C32.1994 37.34 31.1794 37.136 30.2728 36.728C29.3661 36.32 28.6408 35.674 28.0968 34.79C27.5754 33.8833 27.3148 32.716 27.3148 31.288V20H31.9728V30.166C31.9728 31.4807 32.2448 32.3987 32.7888 32.92C33.3328 33.4187 34.1148 33.668 35.1348 33.668C35.6108 33.668 36.0754 33.5887 36.5288 33.43C36.9821 33.2487 37.3788 32.9767 37.7188 32.614C38.0814 32.2513 38.3648 31.7867 38.5688 31.22C38.7728 30.6307 38.8748 29.9393 38.8748 29.146V20H43.5328V37H39.3848L39.2148 34.042C38.6481 35.1753 37.8661 36.014 36.8688 36.558C35.8941 37.0793 34.7154 37.34 33.3328 37.34ZM56.1523 19.66C57.671 19.66 58.9517 19.8867 59.9943 20.34C61.0597 20.7707 61.9097 21.3713 62.5443 22.142C63.2017 22.89 63.6663 23.7287 63.9383 24.658L59.5863 26.222C59.3597 25.202 58.9743 24.4313 58.4303 23.91C57.8863 23.3887 57.1497 23.128 56.2203 23.128C55.359 23.128 54.6223 23.332 54.0103 23.74C53.3983 24.1253 52.9337 24.726 52.6163 25.542C52.299 26.3353 52.1403 27.3327 52.1403 28.534C52.1403 29.7353 52.299 30.7327 52.6163 31.526C52.9563 32.3193 53.4323 32.9087 54.0443 33.294C54.679 33.6793 55.4157 33.872 56.2543 33.872C56.9343 33.872 57.5123 33.7587 57.9883 33.532C58.4643 33.2827 58.8497 32.9313 59.1443 32.478C59.4617 32.0247 59.677 31.4807 59.7903 30.846L64.0063 32.206C63.757 33.226 63.2923 34.1213 62.6123 34.892C61.9323 35.6627 61.0597 36.2633 59.9943 36.694C58.929 37.1247 57.6937 37.34 56.2883 37.34C54.543 37.34 53.0017 36.9887 51.6643 36.286C50.327 35.5833 49.2957 34.5747 48.5703 33.26C47.845 31.9453 47.4823 30.3587 47.4823 28.5C47.4823 26.6413 47.845 25.0547 48.5703 23.74C49.2957 22.4253 50.3157 21.4167 51.6303 20.714C52.945 20.0113 54.4523 19.66 56.1523 19.66ZM84.9317 20L77.0777 28.194L76.1597 28.636L71.0597 34.11L70.9917 29.146L79.6277 20H84.9317ZM72.2837 12.554V37H67.6257V12.554H72.2837ZM77.7237 25.406L85.3397 37H80.0697L74.5277 28.126L77.7237 25.406ZM98.0749 37.34C97.0322 37.34 96.0802 37.1247 95.2189 36.694C94.3802 36.2407 93.6775 35.6287 93.1109 34.858C92.5669 34.0647 92.1929 33.1807 91.9889 32.206L92.4649 31.594L92.1929 37H88.0789V12.554H92.7369V24.794L92.2949 24.08C92.6575 22.8107 93.3489 21.7567 94.3689 20.918C95.3889 20.0793 96.6695 19.66 98.2109 19.66C99.5482 19.66 100.761 20.0113 101.849 20.714C102.937 21.4167 103.787 22.4253 104.399 23.74C105.034 25.0547 105.351 26.6527 105.351 28.534C105.351 30.37 105.034 31.9453 104.399 33.26C103.787 34.5747 102.926 35.5833 101.815 36.286C100.727 36.9887 99.4802 37.34 98.0749 37.34ZM96.6809 33.77C97.9275 33.77 98.9022 33.328 99.6049 32.444C100.33 31.5373 100.693 30.2227 100.693 28.5C100.693 26.7773 100.342 25.474 99.6389 24.59C98.9362 23.6833 97.9615 23.23 96.7149 23.23C95.8989 23.23 95.1962 23.4453 94.6069 23.876C94.0175 24.3067 93.5529 24.9187 93.2129 25.712C92.8955 26.5053 92.7369 27.446 92.7369 28.534C92.7369 29.6447 92.8955 30.5967 93.2129 31.39C93.5529 32.1607 94.0175 32.75 94.6069 33.158C95.2189 33.566 95.9102 33.77 96.6809 33.77ZM117.283 37.34C115.493 37.34 113.929 36.9887 112.591 36.286C111.277 35.5833 110.257 34.5747 109.531 33.26C108.806 31.9453 108.443 30.3587 108.443 28.5C108.443 26.6413 108.806 25.0547 109.531 23.74C110.257 22.4253 111.265 21.4167 112.557 20.714C113.872 20.0113 115.368 19.66 117.045 19.66C118.768 19.66 120.23 20.0113 121.431 20.714C122.633 21.394 123.551 22.3347 124.185 23.536C124.82 24.7147 125.137 26.0633 125.137 27.582C125.137 28.0353 125.126 28.466 125.103 28.874C125.081 29.282 125.047 29.6447 125.001 29.962H111.435V26.732H122.961L120.717 27.548C120.717 26.12 120.389 25.0207 119.731 24.25C119.097 23.4793 118.19 23.094 117.011 23.094C116.15 23.094 115.402 23.298 114.767 23.706C114.155 24.114 113.691 24.726 113.373 25.542C113.056 26.3353 112.897 27.344 112.897 28.568C112.897 29.7693 113.067 30.7667 113.407 31.56C113.77 32.3307 114.269 32.9087 114.903 33.294C115.561 33.6793 116.343 33.872 117.249 33.872C118.247 33.872 119.051 33.6793 119.663 33.294C120.275 32.9087 120.751 32.376 121.091 31.696L124.797 33.124C124.435 34.008 123.879 34.7673 123.131 35.402C122.406 36.0367 121.533 36.524 120.513 36.864C119.516 37.1813 118.439 37.34 117.283 37.34ZM129.085 37V20H133.131L133.437 23.332C133.89 22.1533 134.547 21.2467 135.409 20.612C136.293 19.9773 137.392 19.66 138.707 19.66C139.092 19.66 139.443 19.694 139.761 19.762C140.078 19.83 140.339 19.9207 140.543 20.034L139.999 23.944C139.772 23.8533 139.489 23.7853 139.149 23.74C138.831 23.6947 138.412 23.672 137.891 23.672C137.211 23.672 136.553 23.842 135.919 24.182C135.284 24.4993 134.763 24.998 134.355 25.678C133.947 26.3353 133.743 27.174 133.743 28.194V37H129.085ZM143.428 37V20H147.474L147.78 23.332C148.234 22.1533 148.891 21.2467 149.752 20.612C150.636 19.9773 151.736 19.66 153.05 19.66C153.436 19.66 153.787 19.694 154.104 19.762C154.422 19.83 154.682 19.9207 154.886 20.034L154.342 23.944C154.116 23.8533 153.832 23.7853 153.492 23.74C153.175 23.6947 152.756 23.672 152.234 23.672C151.554 23.672 150.897 23.842 150.262 24.182C149.628 24.4993 149.106 24.998 148.698 25.678C148.29 26.3353 148.086 27.174 148.086 28.194V37H143.428ZM173.752 20L166.884 38.054C166.34 39.5953 165.728 40.8193 165.048 41.726C164.391 42.6327 163.62 43.29 162.736 43.698C161.875 44.106 160.844 44.31 159.642 44.31C158.758 44.31 157.942 44.1967 157.194 43.97C156.469 43.766 155.834 43.494 155.29 43.154L156.276 39.788C156.707 40.128 157.16 40.366 157.636 40.502C158.112 40.6607 158.656 40.74 159.268 40.74C159.903 40.74 160.447 40.604 160.9 40.332C161.376 40.06 161.773 39.516 162.09 38.7L162.668 37.238L160.798 32.818L155.596 20H160.764L163.994 30.2L164.878 33.6L165.932 29.996L169.026 20H173.752Z" fill="#677F8B"/>
<path d="M253.869 13.9609V36H252.658V13.9609H253.869ZM261.71 13.9609V15.0811H244.817V13.9609H261.71ZM266.236 12.75V36H265.04V12.75H266.236ZM266.009 26.5547L265.418 25.8584C265.509 24.9906 265.721 24.1631 266.054 23.376C266.397 22.5889 266.846 21.8926 267.401 21.2871C267.966 20.6816 268.622 20.2023 269.369 19.8491C270.126 19.4959 270.958 19.3193 271.867 19.3193C272.684 19.3193 273.416 19.4354 274.062 19.6675C274.707 19.8895 275.252 20.2427 275.696 20.7271C276.15 21.2114 276.493 21.8371 276.726 22.604C276.958 23.3608 277.074 24.2842 277.074 25.374V36H275.878V25.374C275.878 24.0824 275.701 23.0833 275.348 22.377C274.995 21.6605 274.5 21.1559 273.865 20.8633C273.239 20.5706 272.507 20.4243 271.67 20.4243C270.701 20.4243 269.864 20.6413 269.157 21.0752C268.461 21.499 267.886 22.0389 267.432 22.6948C266.978 23.3407 266.629 24.0117 266.387 24.708C266.155 25.4043 266.029 26.0199 266.009 26.5547ZM288.093 36.3027C287.064 36.3027 286.11 36.106 285.232 35.7124C284.354 35.3088 283.588 34.7487 282.932 34.0322C282.276 33.3057 281.761 32.4479 281.388 31.459C281.024 30.4701 280.843 29.3853 280.843 28.2046V27.5386C280.843 26.3175 281.024 25.2075 281.388 24.2085C281.761 23.1994 282.266 22.3315 282.901 21.605C283.537 20.8683 284.269 20.3032 285.096 19.9097C285.934 19.5161 286.827 19.3193 287.775 19.3193C288.734 19.3193 289.602 19.4959 290.379 19.8491C291.156 20.2023 291.822 20.6968 292.377 21.3325C292.932 21.9683 293.356 22.7251 293.648 23.603C293.941 24.481 294.087 25.4497 294.087 26.5093V27.5234H281.6V26.4185H292.892V26.2217C292.882 25.1924 292.67 24.2388 292.256 23.3608C291.852 22.4829 291.272 21.7765 290.515 21.2417C289.758 20.6968 288.845 20.4243 287.775 20.4243C286.918 20.4243 286.136 20.606 285.429 20.9692C284.733 21.3325 284.132 21.8371 283.628 22.4829C283.123 23.1187 282.735 23.8704 282.462 24.7383C282.19 25.596 282.054 26.5295 282.054 27.5386V28.2046C282.054 29.1733 282.205 30.0815 282.508 30.9292C282.811 31.7769 283.234 32.5236 283.779 33.1694C284.324 33.8052 284.965 34.3047 285.702 34.668C286.438 35.0312 287.246 35.2129 288.124 35.2129C289.072 35.2129 289.94 35.0464 290.727 34.7134C291.514 34.3804 292.231 33.7951 292.876 32.9575L293.664 33.5479C293.3 34.0726 292.861 34.5418 292.347 34.9556C291.832 35.3693 291.222 35.6973 290.515 35.9395C289.819 36.1816 289.012 36.3027 288.093 36.3027ZM311.162 30.6567C311.162 30.0008 311.051 29.4155 310.829 28.9009C310.607 28.3761 310.238 27.9119 309.724 27.5083C309.219 27.0946 308.553 26.7111 307.726 26.3579C306.898 26.0047 305.879 25.6616 304.668 25.3286C303.558 25.0259 302.554 24.6979 301.656 24.3447C300.768 23.9814 300.006 23.5677 299.37 23.1035C298.744 22.6393 298.265 22.0894 297.932 21.4536C297.599 20.8078 297.433 20.0459 297.433 19.168C297.433 18.3203 297.614 17.5584 297.978 16.8823C298.341 16.2062 298.85 15.631 299.506 15.1567C300.172 14.6724 300.949 14.304 301.837 14.0518C302.736 13.7894 303.714 13.6582 304.774 13.6582C306.257 13.6582 307.554 13.9408 308.664 14.5059C309.774 15.0609 310.642 15.8328 311.268 16.8218C311.893 17.8006 312.206 18.9258 312.206 20.1973H310.98C310.98 19.1579 310.723 18.2295 310.208 17.4121C309.703 16.5947 308.987 15.9539 308.059 15.4897C307.14 15.0155 306.045 14.7783 304.774 14.7783C303.462 14.7783 302.347 14.9801 301.429 15.3838C300.521 15.7874 299.829 16.3223 299.355 16.9883C298.891 17.6442 298.659 18.3607 298.659 19.1377C298.659 19.6927 298.76 20.2124 298.961 20.6968C299.173 21.1812 299.516 21.6252 299.991 22.0288C300.475 22.4325 301.126 22.8159 301.943 23.1792C302.771 23.5324 303.8 23.8755 305.031 24.2085C306.161 24.5011 307.176 24.8341 308.074 25.2075C308.982 25.5708 309.759 25.9997 310.405 26.4941C311.051 26.9886 311.545 27.5739 311.888 28.25C312.231 28.9261 312.403 29.7183 312.403 30.6265C312.403 31.5246 312.211 32.3268 311.828 33.0332C311.444 33.7295 310.909 34.3249 310.223 34.8193C309.547 35.3037 308.75 35.672 307.832 35.9243C306.923 36.1766 305.944 36.3027 304.895 36.3027C303.936 36.3027 302.973 36.1867 302.004 35.9546C301.045 35.7225 300.167 35.3491 299.37 34.8345C298.573 34.3198 297.932 33.6437 297.448 32.8062C296.963 31.9686 296.721 30.9494 296.721 29.7485H297.947C297.947 30.7778 298.159 31.6457 298.583 32.3521C299.007 33.0483 299.562 33.6034 300.248 34.0171C300.934 34.4308 301.681 34.7285 302.488 34.9102C303.306 35.0918 304.108 35.1826 304.895 35.1826C306.126 35.1826 307.211 34.9959 308.149 34.6226C309.098 34.2391 309.835 33.7093 310.359 33.0332C310.894 32.347 311.162 31.5549 311.162 30.6567ZM317.58 19.6221V36H316.369V19.6221H317.58ZM315.99 14.6572C315.99 14.3848 316.081 14.1527 316.263 13.9609C316.454 13.7591 316.697 13.6582 316.989 13.6582C317.272 13.6582 317.509 13.7591 317.701 13.9609C317.892 14.1527 317.988 14.3848 317.988 14.6572C317.988 14.9297 317.892 15.1618 317.701 15.3535C317.509 15.5352 317.272 15.626 316.989 15.626C316.697 15.626 316.454 15.5352 316.263 15.3535C316.081 15.1618 315.99 14.9297 315.99 14.6572ZM324.209 12.75V36H322.999V12.75H324.209ZM328.281 28.0986V27.5234C328.281 26.3226 328.453 25.2227 328.796 24.2236C329.149 23.2246 329.644 22.3618 330.279 21.6353C330.915 20.8986 331.672 20.3285 332.55 19.9248C333.438 19.5212 334.422 19.3193 335.501 19.3193C336.581 19.3193 337.565 19.5212 338.453 19.9248C339.341 20.3285 340.103 20.8986 340.739 21.6353C341.385 22.3618 341.879 23.2246 342.222 24.2236C342.565 25.2227 342.737 26.3226 342.737 27.5234V28.0986C342.737 29.2995 342.565 30.3994 342.222 31.3984C341.879 32.3975 341.39 33.2653 340.754 34.002C340.118 34.7285 339.356 35.2936 338.468 35.6973C337.59 36.1009 336.611 36.3027 335.532 36.3027C334.442 36.3027 333.453 36.1009 332.565 35.6973C331.687 35.2936 330.925 34.7285 330.279 34.002C329.644 33.2653 329.149 32.3975 328.796 31.3984C328.453 30.3994 328.281 29.2995 328.281 28.0986ZM329.492 27.5234V28.0986C329.492 29.0472 329.623 29.9504 329.886 30.8081C330.158 31.6558 330.552 32.4126 331.066 33.0786C331.581 33.7345 332.212 34.2542 332.958 34.6377C333.705 35.0111 334.563 35.1978 335.532 35.1978C336.48 35.1978 337.328 35.0111 338.075 34.6377C338.821 34.2542 339.447 33.7345 339.952 33.0786C340.466 32.4126 340.855 31.6558 341.117 30.8081C341.39 29.9504 341.526 29.0472 341.526 28.0986V27.5234C341.526 26.5951 341.39 25.707 341.117 24.8594C340.855 24.0117 340.466 23.2549 339.952 22.5889C339.437 21.9229 338.806 21.3981 338.06 21.0146C337.313 20.6211 336.46 20.4243 335.501 20.4243C334.543 20.4243 333.69 20.6211 332.943 21.0146C332.207 21.3981 331.576 21.9229 331.051 22.5889C330.537 23.2549 330.148 24.0117 329.886 24.8594C329.623 25.707 329.492 26.5951 329.492 27.5234Z" fill="#677F8B"/>
<path d="M443.348 13.42V38.5H440.46V22.73L440.802 16.118H440.764L432.518 38.5H429.934L421.688 16.118H421.65L421.992 22.73V38.5H419.104V13.42H423.778L429.288 28.658L431.188 34.928H431.264L433.202 28.696L438.674 13.42H443.348ZM458.537 19.12C460.335 19.12 461.919 19.5127 463.287 20.298C464.68 21.0833 465.769 22.2233 466.555 23.718C467.34 25.1873 467.733 26.948 467.733 29C467.733 31.052 467.34 32.8253 466.555 34.32C465.769 35.7893 464.68 36.9167 463.287 37.702C461.919 38.4873 460.335 38.88 458.537 38.88C456.763 38.88 455.18 38.4873 453.787 37.702C452.393 36.9167 451.304 35.7893 450.519 34.32C449.733 32.8253 449.341 31.052 449.341 29C449.341 26.948 449.733 25.1873 450.519 23.718C451.304 22.2233 452.393 21.0833 453.787 20.298C455.18 19.5127 456.763 19.12 458.537 19.12ZM458.537 21.742C457.245 21.742 456.143 22.0333 455.231 22.616C454.319 23.1987 453.609 24.0347 453.103 25.124C452.621 26.188 452.381 27.48 452.381 29C452.381 30.4947 452.621 31.7867 453.103 32.876C453.609 33.9653 454.319 34.8013 455.231 35.384C456.143 35.9667 457.245 36.258 458.537 36.258C459.829 36.258 460.931 35.9667 461.843 35.384C462.755 34.8013 463.451 33.9653 463.933 32.876C464.439 31.7867 464.693 30.4947 464.693 29C464.693 27.48 464.439 26.188 463.933 25.124C463.451 24.0347 462.755 23.1987 461.843 22.616C460.931 22.0333 459.829 21.742 458.537 21.742ZM482.766 38.88C481.702 38.88 480.714 38.69 479.802 38.31C478.89 37.93 478.105 37.398 477.446 36.714C476.787 36.03 476.293 35.2573 475.964 34.396L476.382 33.864L476.116 38.5H473.456V10.76H476.496V23.794L476.116 23.224C476.623 22.0333 477.471 21.058 478.662 20.298C479.878 19.5127 481.259 19.12 482.804 19.12C484.375 19.12 485.819 19.5127 487.136 20.298C488.453 21.0833 489.505 22.2107 490.29 23.68C491.075 25.1493 491.468 26.9227 491.468 29C491.468 31.052 491.063 32.8253 490.252 34.32C489.467 35.7893 488.415 36.9167 487.098 37.702C485.781 38.4873 484.337 38.88 482.766 38.88ZM482.462 36.22C484.337 36.22 485.793 35.5613 486.832 34.244C487.896 32.9267 488.428 31.1787 488.428 29C488.428 26.8213 487.909 25.0733 486.87 23.756C485.831 22.4387 484.375 21.78 482.5 21.78C481.309 21.78 480.258 22.084 479.346 22.692C478.459 23.3 477.763 24.1487 477.256 25.238C476.749 26.3273 476.496 27.6067 476.496 29.076C476.496 30.52 476.737 31.7867 477.218 32.876C477.725 33.94 478.421 34.7633 479.308 35.346C480.22 35.9287 481.271 36.22 482.462 36.22ZM506.59 38.88C505.526 38.88 504.538 38.69 503.626 38.31C502.714 37.93 501.929 37.398 501.27 36.714C500.611 36.03 500.117 35.2573 499.788 34.396L500.206 33.864L499.94 38.5H497.28V10.76H500.32V23.794L499.94 23.224C500.447 22.0333 501.295 21.058 502.486 20.298C503.702 19.5127 505.083 19.12 506.628 19.12C508.199 19.12 509.643 19.5127 510.96 20.298C512.277 21.0833 513.329 22.2107 514.114 23.68C514.899 25.1493 515.292 26.9227 515.292 29C515.292 31.052 514.887 32.8253 514.076 34.32C513.291 35.7893 512.239 36.9167 510.922 37.702C509.605 38.4873 508.161 38.88 506.59 38.88ZM506.286 36.22C508.161 36.22 509.617 35.5613 510.656 34.244C511.72 32.9267 512.252 31.1787 512.252 29C512.252 26.8213 511.733 25.0733 510.694 23.756C509.655 22.4387 508.199 21.78 506.324 21.78C505.133 21.78 504.082 22.084 503.17 22.692C502.283 23.3 501.587 24.1487 501.08 25.238C500.573 26.3273 500.32 27.6067 500.32 29.076C500.32 30.52 500.561 31.7867 501.042 32.876C501.549 33.94 502.245 34.7633 503.132 35.346C504.044 35.9287 505.095 36.22 506.286 36.22ZM522.624 15.852C521.94 15.852 521.383 15.6493 520.952 15.244C520.547 14.8133 520.344 14.256 520.344 13.572C520.344 12.888 520.547 12.3433 520.952 11.938C521.383 11.5073 521.94 11.292 522.624 11.292C523.308 11.292 523.853 11.5073 524.258 11.938C524.689 12.3433 524.904 12.888 524.904 13.572C524.904 14.256 524.689 14.8133 524.258 15.244C523.853 15.6493 523.308 15.852 522.624 15.852ZM524.144 19.5V38.5H521.104V19.5H524.144ZM531.198 38.5V19.5H533.858L534.124 23.756L533.63 23.338C534.035 22.3247 534.58 21.514 535.264 20.906C535.948 20.2727 536.733 19.8167 537.62 19.538C538.532 19.2593 539.469 19.12 540.432 19.12C541.8 19.12 543.041 19.386 544.156 19.918C545.271 20.4247 546.157 21.21 546.816 22.274C547.5 23.338 547.842 24.6933 547.842 26.34V38.5H544.802V27.404C544.802 25.3013 544.346 23.8447 543.434 23.034C542.547 22.198 541.445 21.78 540.128 21.78C539.216 21.78 538.304 21.9953 537.392 22.426C536.48 22.8567 535.72 23.5533 535.112 24.516C534.529 25.4787 534.238 26.7707 534.238 28.392V38.5H531.198ZM561.565 38.88C559.716 38.88 558.006 38.4873 556.435 37.702C554.89 36.9167 553.699 35.802 552.863 34.358L555.447 32.496C556.005 33.6613 556.815 34.5733 557.879 35.232C558.969 35.8907 560.273 36.22 561.793 36.22C563.136 36.22 564.187 35.9667 564.947 35.46C565.707 34.928 566.087 34.244 566.087 33.408C566.087 32.876 565.91 32.3947 565.555 31.964C565.226 31.508 564.58 31.1787 563.617 30.976L559.057 30.026C557.208 29.646 555.878 29.0127 555.067 28.126C554.282 27.2393 553.889 26.1373 553.889 24.82C553.889 23.7813 554.181 22.8313 554.763 21.97C555.371 21.1087 556.22 20.4247 557.309 19.918C558.424 19.386 559.729 19.12 561.223 19.12C563.098 19.12 564.681 19.4873 565.973 20.222C567.265 20.9567 568.228 21.9953 568.861 23.338L566.315 25.01C565.885 23.8953 565.188 23.0847 564.225 22.578C563.263 22.046 562.262 21.78 561.223 21.78C560.311 21.78 559.526 21.9067 558.867 22.16C558.234 22.4133 557.74 22.768 557.385 23.224C557.056 23.6547 556.891 24.1487 556.891 24.706C556.891 25.2633 557.081 25.7827 557.461 26.264C557.841 26.72 558.551 27.0493 559.589 27.252L564.339 28.24C566.113 28.5947 567.354 29.1773 568.063 29.988C568.773 30.7987 569.127 31.7867 569.127 32.952C569.127 34.1427 568.811 35.194 568.177 36.106C567.544 36.9927 566.657 37.6767 565.517 38.158C564.377 38.6393 563.06 38.88 561.565 38.88Z" fill="#677F8B"/>
<path d="M644.924 37V14.56H654.75C657.47 14.56 659.476 15.0927 660.768 16.158C662.06 17.2233 662.706 18.7307 662.706 20.68C662.706 21.8813 662.343 22.9467 661.618 23.876C660.893 24.8053 659.827 25.3947 658.422 25.644V25.678C659.986 25.9047 661.187 26.494 662.026 27.446C662.865 28.398 663.284 29.5313 663.284 30.846C663.284 32.7727 662.581 34.28 661.176 35.368C659.793 36.456 657.765 37 655.09 37H644.924ZM649.48 33.464H654.682C655.951 33.464 656.892 33.2033 657.504 32.682C658.116 32.1607 658.422 31.4353 658.422 30.506C658.422 29.554 658.116 28.8287 657.504 28.33C656.892 27.8313 655.951 27.582 654.682 27.582H649.48V33.464ZM649.48 23.978H654.138C656.609 23.978 657.844 23.0147 657.844 21.088C657.844 19.1613 656.609 18.198 654.138 18.198H649.48V23.978ZM673.208 37.34C672.074 37.34 671.054 37.136 670.148 36.728C669.241 36.32 668.516 35.674 667.972 34.79C667.45 33.8833 667.19 32.716 667.19 31.288V20H671.848V30.166C671.848 31.4807 672.12 32.3987 672.664 32.92C673.208 33.4187 673.99 33.668 675.01 33.668C675.486 33.668 675.95 33.5887 676.404 33.43C676.857 33.2487 677.254 32.9767 677.594 32.614C677.956 32.2513 678.24 31.7867 678.444 31.22C678.648 30.6307 678.75 29.9393 678.75 29.146V20H683.408V37H679.26L679.09 34.042C678.523 35.1753 677.741 36.014 676.744 36.558C675.769 37.0793 674.59 37.34 673.208 37.34ZM688.309 37V20H692.355L692.661 23.332C693.115 22.1533 693.772 21.2467 694.633 20.612C695.517 19.9773 696.617 19.66 697.931 19.66C698.317 19.66 698.668 19.694 698.985 19.762C699.303 19.83 699.563 19.9207 699.767 20.034L699.223 23.944C698.997 23.8533 698.713 23.7853 698.373 23.74C698.056 23.6947 697.637 23.672 697.115 23.672C696.435 23.672 695.778 23.842 695.143 24.182C694.509 24.4993 693.987 24.998 693.579 25.678C693.171 26.3353 692.967 27.174 692.967 28.194V37H688.309ZM702.653 37V20H706.699L707.005 23.332C707.458 22.1533 708.116 21.2467 708.977 20.612C709.861 19.9773 710.96 19.66 712.275 19.66C712.66 19.66 713.012 19.694 713.329 19.762C713.646 19.83 713.907 19.9207 714.111 20.034L713.567 23.944C713.34 23.8533 713.057 23.7853 712.717 23.74C712.4 23.6947 711.98 23.672 711.459 23.672C710.779 23.672 710.122 23.842 709.487 24.182C708.852 24.4993 708.331 24.998 707.923 25.678C707.515 26.3353 707.311 27.174 707.311 28.194V37H702.653ZM724.417 19.66C726.139 19.66 727.647 20.0113 728.939 20.714C730.253 21.4167 731.273 22.4253 731.999 23.74C732.747 25.0547 733.121 26.6413 733.121 28.5C733.121 30.336 732.747 31.9227 731.999 33.26C731.273 34.5747 730.253 35.5833 728.939 36.286C727.647 36.9887 726.139 37.34 724.417 37.34C722.717 37.34 721.209 36.9887 719.895 36.286C718.58 35.5833 717.549 34.5747 716.801 33.26C716.075 31.9227 715.713 30.336 715.713 28.5C715.713 26.6413 716.075 25.0547 716.801 23.74C717.549 22.4253 718.58 21.4167 719.895 20.714C721.209 20.0113 722.717 19.66 724.417 19.66ZM724.417 23.128C723.555 23.128 722.819 23.332 722.207 23.74C721.617 24.1253 721.164 24.7147 720.847 25.508C720.529 26.3013 720.371 27.2987 720.371 28.5C720.371 29.7013 720.529 30.6987 720.847 31.492C721.164 32.2853 721.617 32.886 722.207 33.294C722.819 33.6793 723.555 33.872 724.417 33.872C725.255 33.872 725.969 33.6793 726.559 33.294C727.171 32.886 727.635 32.2853 727.953 31.492C728.27 30.6987 728.429 29.7013 728.429 28.5C728.429 27.2987 728.27 26.3013 727.953 25.508C727.635 24.7147 727.171 24.1253 726.559 23.74C725.969 23.332 725.255 23.128 724.417 23.128ZM758.483 20H763.447L758.007 37H752.635L748.929 25.44L745.359 37H739.987L734.547 20H739.511L742.911 33.022L746.685 20H751.309L755.117 33.022L758.483 20ZM785.547 14.56V28.16C785.547 31.22 784.731 33.5207 783.099 35.062C781.467 36.5807 779.087 37.34 775.959 37.34C772.831 37.34 770.451 36.5807 768.819 35.062C767.187 33.5207 766.371 31.22 766.371 28.16V14.56H771.063V27.956C771.063 29.8373 771.459 31.2313 772.253 32.138C773.069 33.0447 774.304 33.498 775.959 33.498C777.613 33.498 778.837 33.0447 779.631 32.138C780.424 31.2313 780.821 29.8373 780.821 27.956V14.56H785.547ZM790.376 44.14V20H794.558L794.864 25.406L794.286 24.794C794.49 23.7967 794.864 22.9127 795.408 22.142C795.974 21.3713 796.688 20.7707 797.55 20.34C798.411 19.8867 799.374 19.66 800.44 19.66C801.822 19.66 803.058 20.0113 804.146 20.714C805.234 21.4167 806.084 22.4253 806.696 23.74C807.33 25.032 807.648 26.6073 807.648 28.466C807.648 30.3247 807.33 31.9227 806.696 33.26C806.061 34.5747 805.188 35.5833 804.078 36.286C802.99 36.9887 801.743 37.34 800.338 37.34C798.842 37.34 797.595 36.9207 796.598 36.082C795.623 35.2433 794.954 34.1893 794.592 32.92L795.034 32.206V44.14H790.376ZM798.978 33.77C800.224 33.77 801.199 33.328 801.902 32.444C802.627 31.5373 802.99 30.2227 802.99 28.5C802.99 26.7773 802.638 25.474 801.936 24.59C801.256 23.6833 800.292 23.23 799.046 23.23C798.252 23.23 797.55 23.4453 796.938 23.876C796.348 24.284 795.884 24.8847 795.544 25.678C795.204 26.4487 795.034 27.3893 795.034 28.5C795.034 29.588 795.192 30.5287 795.51 31.322C795.827 32.1153 796.28 32.7273 796.87 33.158C797.482 33.566 798.184 33.77 798.978 33.77Z" fill="#677F8B"/>
<path d="M905.536 12.773V40H901.85V27.612H887.163V40H883.477V12.773H887.163V24.914H901.85V12.773H905.536ZM927.192 20.753V40H925.178C924.696 40 924.392 39.7657 924.266 39.297L924 37.226C923.164 38.1507 922.226 38.898 921.188 39.468C920.149 40.0253 918.958 40.304 917.616 40.304C916.564 40.304 915.633 40.133 914.823 39.791C914.025 39.4363 913.353 38.9423 912.809 38.309C912.264 37.6757 911.852 36.9093 911.574 36.01C911.308 35.1107 911.175 34.1163 911.175 33.027V20.753H914.557V33.027C914.557 34.4837 914.886 35.611 915.545 36.409C916.216 37.207 917.236 37.606 918.604 37.606C919.604 37.606 920.535 37.3717 921.397 36.903C922.271 36.4217 923.075 35.763 923.81 34.927V20.753H927.192ZM935.746 23.546C936.164 23.0773 936.607 22.653 937.076 22.273C937.545 21.893 938.039 21.57 938.558 21.304C939.09 21.0253 939.647 20.8163 940.23 20.677C940.825 20.525 941.465 20.449 942.149 20.449C943.2 20.449 944.125 20.6263 944.923 20.981C945.734 21.323 946.405 21.817 946.937 22.463C947.482 23.0963 947.893 23.8627 948.172 24.762C948.451 25.6613 948.59 26.6557 948.59 27.745V40H945.189V27.745C945.189 26.2883 944.853 25.161 944.182 24.363C943.523 23.5523 942.516 23.147 941.161 23.147C940.16 23.147 939.223 23.3877 938.349 23.869C937.488 24.3503 936.69 25.0027 935.955 25.826V40H932.554V20.753H934.587C935.068 20.753 935.366 20.9873 935.48 21.456L935.746 23.546ZM967.138 24.173C967.037 24.3123 966.936 24.42 966.834 24.496C966.733 24.572 966.594 24.61 966.416 24.61C966.226 24.61 966.017 24.534 965.789 24.382C965.561 24.2173 965.276 24.04 964.934 23.85C964.605 23.66 964.193 23.489 963.699 23.337C963.218 23.1723 962.623 23.09 961.913 23.09C960.963 23.09 960.127 23.261 959.405 23.603C958.683 23.9323 958.075 24.4137 957.581 25.047C957.1 25.6803 956.733 26.4467 956.479 27.346C956.239 28.2453 956.118 29.2523 956.118 30.367C956.118 31.5323 956.251 32.571 956.517 33.483C956.783 34.3823 957.157 35.1423 957.638 35.763C958.132 36.371 958.721 36.8397 959.405 37.169C960.102 37.4857 960.881 37.644 961.742 37.644C962.566 37.644 963.243 37.549 963.775 37.359C964.307 37.1563 964.744 36.9347 965.086 36.694C965.441 36.4533 965.732 36.238 965.96 36.048C966.201 35.8453 966.435 35.744 966.663 35.744C966.942 35.744 967.157 35.8517 967.309 36.067L968.259 37.302C967.841 37.8213 967.366 38.2647 966.834 38.632C966.302 38.9993 965.726 39.3097 965.105 39.563C964.497 39.8037 963.858 39.981 963.186 40.095C962.515 40.209 961.831 40.266 961.134 40.266C959.931 40.266 958.81 40.0443 957.771 39.601C956.745 39.1577 955.852 38.518 955.092 37.682C954.332 36.8333 953.737 35.7947 953.306 34.566C952.876 33.3373 952.66 31.9377 952.66 30.367C952.66 28.9357 952.857 27.612 953.249 26.396C953.655 25.18 954.237 24.135 954.997 23.261C955.77 22.3743 956.714 21.684 957.828 21.19C958.956 20.696 960.248 20.449 961.704 20.449C963.06 20.449 964.25 20.6707 965.276 21.114C966.315 21.5447 967.233 22.159 968.031 22.957L967.138 24.173ZM975.291 23.318C976.114 22.444 977.026 21.7473 978.027 21.228C979.028 20.7087 980.18 20.449 981.485 20.449C982.536 20.449 983.461 20.6263 984.259 20.981C985.07 21.323 985.741 21.817 986.273 22.463C986.818 23.0963 987.229 23.8627 987.508 24.762C987.787 25.6613 987.926 26.6557 987.926 27.745V40H984.525V27.745C984.525 26.2883 984.189 25.161 983.518 24.363C982.859 23.5523 981.852 23.147 980.497 23.147C979.496 23.147 978.559 23.3877 977.685 23.869C976.824 24.3503 976.026 25.0027 975.291 25.826V40H971.89V12.013H975.291V23.318Z" fill="#677F8B"/>
<path d="M1075.13 9.42969V40H1072.57V9.42969H1075.13ZM1085.61 9.42969V11.6553H1062.11V9.42969H1085.61ZM1096.67 40.4199C1095.19 40.4199 1093.82 40.147 1092.58 39.6011C1091.35 39.0552 1090.27 38.2853 1089.34 37.2915C1088.43 36.2977 1087.73 35.1219 1087.22 33.7642C1086.73 32.3924 1086.49 30.8947 1086.49 29.271V28.3682C1086.49 26.6185 1086.75 25.0368 1087.27 23.623C1087.78 22.2093 1088.5 20.9985 1089.41 19.9907C1090.32 18.9829 1091.35 18.2131 1092.52 17.6812C1093.69 17.1353 1094.92 16.8623 1096.21 16.8623C1097.65 16.8623 1098.93 17.1213 1100.05 17.6392C1101.17 18.1431 1102.11 18.8639 1102.87 19.8018C1103.64 20.7256 1104.22 21.8244 1104.61 23.0981C1105 24.3579 1105.2 25.7507 1105.2 27.2764V28.8091H1088V26.6675H1102.7V26.3735C1102.67 25.0998 1102.41 23.91 1101.92 22.8042C1101.45 21.6844 1100.73 20.7746 1099.78 20.0747C1098.83 19.3748 1097.64 19.0249 1096.21 19.0249C1095.15 19.0249 1094.17 19.2489 1093.27 19.6968C1092.39 20.1447 1091.63 20.7886 1090.98 21.6284C1090.35 22.4543 1089.86 23.4411 1089.51 24.5889C1089.18 25.7227 1089.01 26.9824 1089.01 28.3682V29.271C1089.01 30.5308 1089.19 31.7065 1089.55 32.7983C1089.93 33.8761 1090.46 34.828 1091.15 35.6538C1091.85 36.4797 1092.68 37.1235 1093.63 37.5854C1094.58 38.0474 1095.63 38.2783 1096.78 38.2783C1098.12 38.2783 1099.31 38.0334 1100.35 37.5435C1101.38 37.0396 1102.31 36.2487 1103.14 35.1709L1104.71 36.3887C1104.22 37.1165 1103.61 37.7884 1102.87 38.4043C1102.14 39.0202 1101.26 39.5101 1100.24 39.874C1099.22 40.238 1098.03 40.4199 1096.67 40.4199ZM1123.76 34.2051C1123.76 33.5892 1123.6 32.9803 1123.3 32.3784C1122.99 31.7765 1122.39 31.2236 1121.51 30.7197C1120.64 30.2158 1119.36 29.7889 1117.67 29.439C1116.41 29.159 1115.28 28.8441 1114.29 28.4941C1113.31 28.1442 1112.48 27.7243 1111.81 27.2344C1111.14 26.7445 1110.63 26.1566 1110.28 25.4707C1109.93 24.7848 1109.75 23.973 1109.75 23.0352C1109.75 22.1953 1109.93 21.4045 1110.3 20.6626C1110.68 19.9067 1111.21 19.2489 1111.89 18.689C1112.59 18.1151 1113.43 17.6672 1114.41 17.3452C1115.41 17.0233 1116.52 16.8623 1117.75 16.8623C1119.5 16.8623 1121 17.1632 1122.25 17.7651C1123.51 18.353 1124.46 19.1579 1125.12 20.1797C1125.79 21.2015 1126.13 22.3563 1126.13 23.644H1123.63C1123.63 22.8602 1123.4 22.1183 1122.94 21.4185C1122.49 20.7186 1121.83 20.1447 1120.94 19.6968C1120.08 19.2489 1119.01 19.0249 1117.75 19.0249C1116.45 19.0249 1115.39 19.2209 1114.58 19.6128C1113.77 20.0047 1113.18 20.5016 1112.8 21.1035C1112.43 21.7054 1112.25 22.3283 1112.25 22.9722C1112.25 23.4761 1112.33 23.938 1112.48 24.3579C1112.65 24.7638 1112.94 25.1418 1113.36 25.4917C1113.8 25.8416 1114.41 26.1706 1115.21 26.4785C1116.01 26.7865 1117.05 27.0874 1118.32 27.3813C1120.15 27.7873 1121.65 28.2842 1122.81 28.8721C1123.99 29.446 1124.86 30.1598 1125.42 31.0137C1125.98 31.8535 1126.26 32.8753 1126.26 34.0791C1126.26 35.0169 1126.06 35.8778 1125.67 36.6616C1125.28 37.4315 1124.71 38.0964 1123.97 38.6562C1123.24 39.2161 1122.36 39.6501 1121.32 39.958C1120.3 40.266 1119.15 40.4199 1117.88 40.4199C1115.96 40.4199 1114.34 40.105 1113.01 39.4751C1111.69 38.8312 1110.69 37.9914 1110 36.9556C1109.33 35.9058 1109 34.793 1109 33.6172H1111.5C1111.58 34.793 1111.95 35.7238 1112.61 36.4097C1113.27 37.0815 1114.07 37.5575 1115.02 37.8374C1115.99 38.1174 1116.94 38.2573 1117.88 38.2573C1119.17 38.2573 1120.24 38.0684 1121.11 37.6904C1121.98 37.3125 1122.64 36.8156 1123.09 36.1997C1123.53 35.5838 1123.76 34.9189 1123.76 34.2051ZM1134.74 7.75V40H1132.24V7.75H1134.74ZM1155.42 35.9268V24.2109C1155.42 23.1331 1155.2 22.2023 1154.75 21.4185C1154.3 20.6346 1153.64 20.0327 1152.77 19.6128C1151.91 19.1929 1150.84 18.9829 1149.56 18.9829C1148.39 18.9829 1147.34 19.1929 1146.41 19.6128C1145.5 20.0187 1144.78 20.5716 1144.25 21.2715C1143.73 21.9574 1143.47 22.7202 1143.47 23.5601L1140.95 23.5391C1140.95 22.6852 1141.16 21.8594 1141.58 21.0615C1142 20.2637 1142.6 19.5498 1143.37 18.9199C1144.14 18.29 1145.05 17.7931 1146.12 17.4292C1147.2 17.0513 1148.38 16.8623 1149.67 16.8623C1151.29 16.8623 1152.72 17.1353 1153.95 17.6812C1155.2 18.2271 1156.17 19.0459 1156.87 20.1377C1157.57 21.2295 1157.92 22.6012 1157.92 24.2529V35.2339C1157.92 36.0177 1157.97 36.8296 1158.09 37.6694C1158.21 38.5093 1158.39 39.2021 1158.61 39.748V40H1155.94C1155.78 39.4961 1155.64 38.8662 1155.55 38.1104C1155.46 37.3405 1155.42 36.6126 1155.42 35.9268ZM1156.01 26.7725L1156.05 28.7041H1151.12C1149.83 28.7041 1148.67 28.8231 1147.65 29.061C1146.64 29.285 1145.79 29.6209 1145.09 30.0688C1144.39 30.5028 1143.85 31.0277 1143.47 31.6436C1143.11 32.2594 1142.93 32.9593 1142.93 33.7432C1142.93 34.555 1143.13 35.2969 1143.54 35.9688C1143.96 36.6406 1144.54 37.1795 1145.3 37.5854C1146.07 37.9774 1146.98 38.1733 1148.03 38.1733C1149.43 38.1733 1150.66 37.9144 1151.72 37.3965C1152.8 36.8786 1153.69 36.1997 1154.39 35.3599C1155.09 34.52 1155.56 33.6032 1155.8 32.6094L1156.89 34.0581C1156.71 34.758 1156.37 35.4788 1155.88 36.2207C1155.41 36.9486 1154.78 37.6344 1154.01 38.2783C1153.24 38.9082 1152.33 39.4261 1151.28 39.832C1150.25 40.224 1149.07 40.4199 1147.76 40.4199C1146.27 40.4199 1144.98 40.14 1143.87 39.5801C1142.78 39.0202 1141.93 38.2573 1141.31 37.2915C1140.71 36.3117 1140.41 35.2059 1140.41 33.9741C1140.41 32.8543 1140.65 31.8535 1141.12 30.9717C1141.6 30.0758 1142.28 29.32 1143.18 28.7041C1144.09 28.0742 1145.18 27.5983 1146.45 27.2764C1147.74 26.9404 1149.18 26.7725 1150.78 26.7725H1156.01Z" fill="#677F8B"/>
</svg>
