<svg width="55" height="55" viewBox="0 0 55 55" fill="none" xmlns="http://www.w3.org/2000/svg">
<g clip-path="url(#clip0_491_617)">
<path d="M14.6254 13.678C18.2778 10.7517 22.82 9.16051 27.5 9.16797C32.3698 9.16797 36.8454 10.8546 40.3746 13.678L43.7044 10.3482L46.9448 13.5886L43.615 16.9184C46.0389 19.9529 47.5568 23.6101 47.9939 27.4692C48.4311 31.3283 47.7698 35.2324 46.0861 38.7322C44.4024 42.232 41.7647 45.1853 38.4767 47.2522C35.1886 49.3192 31.3838 50.4157 27.5 50.4157C23.6163 50.4157 19.8114 49.3192 16.5234 47.2522C13.2353 45.1853 10.5977 42.232 8.91396 38.7322C7.23026 35.2324 6.56893 31.3283 7.00608 27.4692C7.44324 23.6101 8.96111 19.9529 11.385 16.9184L8.05522 13.5909L11.2956 10.3505L14.6254 13.678ZM29.7917 27.5013V17.1773L18.3333 32.0846H25.2083V42.3971L36.6667 27.5013H29.7917ZM18.3333 2.29297H36.6667V6.8763H18.3333V2.29297Z" fill="#5D5FEF"/>
</g>
<defs>
<clipPath id="clip0_491_617">
<rect width="55" height="55" fill="white"/>
</clipPath>
</defs>
</svg>
