<svg width="55" height="55" viewBox="0 0 55 55" fill="none" xmlns="http://www.w3.org/2000/svg">
<g clip-path="url(#clip0_491_638)">
<g clip-path="url(#clip1_491_638)">
<path d="M27.5006 25.207C30.5396 25.207 33.4541 26.4142 35.6029 28.5631C37.7518 30.712 38.959 33.6264 38.959 36.6654V50.4154H16.0423V36.6654C16.0423 33.6264 17.2495 30.712 19.3984 28.5631C21.5472 26.4142 24.4617 25.207 27.5006 25.207ZM12.119 32.0958C11.7543 33.3259 11.5388 34.5954 11.4773 35.877L11.459 36.6654V50.4154H4.58398V40.1029C4.58353 38.1265 5.3128 36.2195 6.6319 34.7477C7.95099 33.2759 9.76704 32.343 11.7317 32.1279L12.119 32.0958ZM42.8823 32.0958C44.9217 32.2201 46.8368 33.1178 48.237 34.6057C49.6372 36.0936 50.417 38.0597 50.4173 40.1029V50.4154H43.5423V36.6654C43.5423 35.0772 43.3131 33.5441 42.8823 32.0958ZM12.6048 18.332C14.1243 18.332 15.5815 18.9356 16.6559 20.0101C17.7304 21.0845 18.334 22.5417 18.334 24.0612C18.334 25.5807 17.7304 27.0379 16.6559 28.1123C15.5815 29.1868 14.1243 29.7904 12.6048 29.7904C11.0853 29.7904 9.62811 29.1868 8.55369 28.1123C7.47926 27.0379 6.87565 25.5807 6.87565 24.0612C6.87565 22.5417 7.47926 21.0845 8.55369 20.0101C9.62811 18.9356 11.0853 18.332 12.6048 18.332ZM42.3965 18.332C43.916 18.332 45.3732 18.9356 46.4476 20.0101C47.522 21.0845 48.1256 22.5417 48.1256 24.0612C48.1256 25.5807 47.522 27.0379 46.4476 28.1123C45.3732 29.1868 43.916 29.7904 42.3965 29.7904C40.877 29.7904 39.4198 29.1868 38.3453 28.1123C37.2709 27.0379 36.6673 25.5807 36.6673 24.0612C36.6673 22.5417 37.2709 21.0845 38.3453 20.0101C39.4198 18.9356 40.877 18.332 42.3965 18.332ZM27.5006 4.58203C29.9318 4.58203 32.2634 5.5478 33.9825 7.26689C35.7015 8.98597 36.6673 11.3175 36.6673 13.7487C36.6673 16.1798 35.7015 18.5114 33.9825 20.2305C32.2634 21.9496 29.9318 22.9154 27.5006 22.9154C25.0695 22.9154 22.7379 21.9496 21.0188 20.2305C19.2998 18.5114 18.334 16.1798 18.334 13.7487C18.334 11.3175 19.2998 8.98597 21.0188 7.26689C22.7379 5.5478 25.0695 4.58203 27.5006 4.58203Z" fill="#5D5FEF"/>
</g>
</g>
<defs>
<clipPath id="clip0_491_638">
<rect width="55" height="55" fill="white"/>
</clipPath>
<clipPath id="clip1_491_638">
<rect width="55" height="55" fill="white"/>
</clipPath>
</defs>
</svg>
