<svg width="55" height="55" viewBox="0 0 55 55" fill="none" xmlns="http://www.w3.org/2000/svg">
<g clip-path="url(#clip0_491_629)">
<path d="M29.7921 48.1248H41.2504V52.7081H13.7504V48.1248H25.2088V45.7185C21.5753 45.3537 18.0816 44.126 15.0186 42.1377C11.9556 40.1494 9.41196 37.458 7.59961 34.2877L11.5802 32.0144C12.9799 34.4602 14.9246 36.5504 17.2632 38.1226C19.6018 39.6949 22.2714 40.7069 25.0646 41.08C27.8578 41.4531 30.6993 41.1773 33.3686 40.2741C36.0379 39.3708 38.4631 37.8643 40.4557 35.8717C42.4483 33.8791 43.9548 31.454 44.8581 28.7847C45.7613 26.1154 46.0371 23.2738 45.664 20.4806C45.2909 17.6874 44.2789 15.0178 42.7066 12.6792C41.1343 10.3406 39.0441 8.39596 36.5984 6.99625L38.8717 3.01562C42.3803 5.01979 45.2964 7.91636 47.324 11.4115C49.3517 14.9065 50.4188 18.8758 50.4171 22.9165C50.4171 34.7988 41.3719 44.5704 29.7921 45.7185V48.1248ZM27.5004 38.9581C25.3938 38.9581 23.3078 38.5432 21.3616 37.737C19.4153 36.9309 17.6469 35.7492 16.1573 34.2596C14.6677 32.77 13.486 31.0016 12.6799 29.0553C11.8737 27.1091 11.4588 25.0231 11.4588 22.9165C11.4588 20.8098 11.8737 18.7238 12.6799 16.7776C13.486 14.8313 14.6677 13.0629 16.1573 11.5733C17.6469 10.0837 19.4153 8.90206 21.3616 8.09589C23.3078 7.28972 25.3938 6.87479 27.5004 6.87479C31.755 6.87479 35.8352 8.56489 38.8436 11.5733C41.852 14.5817 43.5421 18.6619 43.5421 22.9165C43.5421 27.171 41.852 31.2512 38.8436 34.2596C35.8352 37.268 31.755 38.9581 27.5004 38.9581Z" fill="#4050E8"/>
</g>
<defs>
<clipPath id="clip0_491_629">
<rect width="55" height="55" fill="white"/>
</clipPath>
</defs>
</svg>
