<svg width="55" height="55" viewBox="0 0 55 55" fill="none" xmlns="http://www.w3.org/2000/svg">
<g clip-path="url(#clip0_491_605)">
<g clip-path="url(#clip1_491_605)">
<g clip-path="url(#clip2_491_605)">
<path d="M8.05541 4.81122L51.8079 48.5637L48.5652 51.8064L43.9498 47.1887C42.3587 47.8083 40.666 48.1254 38.9585 48.1237H16.0419C12.7951 48.1258 9.65235 46.9788 7.17011 44.886C4.68787 42.7931 3.02628 39.8894 2.47957 36.689C1.93286 33.4886 2.53629 30.198 4.18302 27.3998C5.82976 24.6017 8.41354 22.4765 11.4769 21.4006C11.3788 19.4095 11.6531 17.4175 12.2858 15.5271L4.8127 8.05164L8.05541 4.81122ZM38.9585 20.6237C41.3692 20.6252 43.7371 21.2601 45.8252 22.4648C47.9132 23.6695 49.648 25.4018 50.8558 27.4881C52.0636 29.5743 52.702 31.9413 52.707 34.352C52.712 36.7626 52.0835 39.1322 50.8844 41.2235L32.1065 22.4479C34.1231 21.2883 36.4606 20.6237 38.9585 20.6237ZM27.5002 4.58205C31.0346 4.58235 34.4701 5.74942 37.2734 7.9021C40.0766 10.0548 42.0908 13.0727 43.0033 16.4873C40.5777 15.9427 38.0668 15.8955 35.6224 16.3485C33.178 16.8014 30.8507 17.7452 28.7812 19.1227L17.6323 7.97372C20.4492 5.77036 23.924 4.57604 27.5002 4.58205Z" fill="#5D5FEF"/>
</g>
</g>
</g>
<defs>
<clipPath id="clip0_491_605">
<rect width="55" height="55" fill="white"/>
</clipPath>
<clipPath id="clip1_491_605">
<rect width="55" height="55" fill="white"/>
</clipPath>
<clipPath id="clip2_491_605">
<rect width="55" height="55" fill="white"/>
</clipPath>
</defs>
</svg>
