<svg width="55" height="55" viewBox="0 0 55 55" fill="none" xmlns="http://www.w3.org/2000/svg">
<g clip-path="url(#clip0_491_582)">
<g clip-path="url(#clip1_491_582)">
<path d="M16.0423 11.4596V4.58464C16.0423 3.97685 16.2838 3.39395 16.7135 2.96418C17.1433 2.53441 17.7262 2.29297 18.334 2.29297H36.6673C37.2751 2.29297 37.858 2.53441 38.2878 2.96418C38.7175 3.39395 38.959 3.97685 38.959 4.58464V11.4596H48.1256C48.7334 11.4596 49.3163 11.7011 49.7461 12.1308C50.1759 12.5606 50.4173 13.1435 50.4173 13.7513V45.8346C50.4173 46.4424 50.1759 47.0253 49.7461 47.4551C49.3163 47.8849 48.7334 48.1263 48.1256 48.1263H6.87565C6.26786 48.1263 5.68497 47.8849 5.2552 47.4551C4.82543 47.0253 4.58398 46.4424 4.58398 45.8346V13.7513C4.58398 13.1435 4.82543 12.5606 5.2552 12.1308C5.68497 11.7011 6.26786 11.4596 6.87565 11.4596H16.0423ZM38.959 16.043V27.5013H45.834V16.043H38.959ZM34.3756 16.043H20.6257V27.5013H34.3756V16.043ZM16.0423 16.043H9.16732V27.5013H16.0423V16.043ZM20.6257 6.8763V11.4596H34.3756V6.8763H20.6257Z" fill="#5D5FEF"/>
</g>
</g>
<defs>
<clipPath id="clip0_491_582">
<rect width="55" height="55" fill="white"/>
</clipPath>
<clipPath id="clip1_491_582">
<rect width="55" height="55" fill="white"/>
</clipPath>
</defs>
</svg>
