<svg width="20" height="20" viewBox="0 0 20 20" fill="none" xmlns="http://www.w3.org/2000/svg">
<path fill-rule="evenodd" clip-rule="evenodd" d="M9.75 0.5C4.36519 0.5 0 4.86523 0 10.25C0 15.6348 4.36519 20 9.75 20C15.1348 20 19.5 15.6348 19.5 10.25C19.5 4.86523 15.1348 0.5 9.75 0.5ZM8.73962 18.5465C6.88975 18.3249 5.17816 17.4968 3.8403 16.159C2.26183 14.5806 1.39258 12.4819 1.39258 10.2496C1.39258 8.24011 2.09739 6.33914 3.3895 4.82812C3.42278 5.22736 3.50495 5.65538 3.48391 5.96133C3.40703 7.07672 3.29697 7.77478 3.94984 8.7158C4.20419 9.08231 4.26667 9.60773 4.39047 10.032C4.51155 10.447 4.99525 10.6647 5.32886 10.9204C6.00194 11.4364 6.64586 12.0362 7.35958 12.4904C7.83063 12.7902 8.12486 12.9393 7.98691 13.5141C7.87595 13.9764 7.84497 14.2612 7.60581 14.673C7.53283 14.7987 7.8813 15.6067 7.99727 15.7226C8.34873 16.074 8.69748 16.3965 9.08059 16.7129C9.67455 17.2036 9.02289 17.8412 8.73962 18.5465ZM15.6598 16.1591C14.4583 17.3606 12.9552 18.1506 11.3213 18.4597C11.5528 17.8871 11.9652 17.3783 12.3476 17.0834C12.6803 16.8267 13.097 16.333 13.2707 15.9419C13.4443 15.5513 13.6744 15.2128 13.9071 14.8536C14.2383 14.3427 13.0906 13.5722 12.7187 13.4108C11.8818 13.0474 11.2518 12.5572 10.508 12.0338C9.97813 11.661 8.90225 12.2285 8.30399 11.9674C7.48457 11.6096 6.80947 10.9879 6.09721 10.4515C5.36221 9.89794 5.39774 9.25261 5.39774 8.436C5.97346 8.45723 6.79246 8.27667 7.17467 8.73966C7.29528 8.88577 7.70999 9.5385 7.98758 9.30656C8.21436 9.11705 7.81953 8.35739 7.74327 8.1788C7.50866 7.62966 8.27783 7.41548 8.67153 7.04311C9.18528 6.5573 10.2873 5.79539 10.2002 5.44716C10.1131 5.09892 9.09753 4.1123 8.50105 4.26623C8.41166 4.2893 7.62463 5.11453 7.47257 5.244C7.4766 4.97466 7.48063 4.70536 7.48475 4.43602C7.48733 4.26595 7.1675 4.09139 7.18236 3.9817C7.21986 3.70448 7.99152 3.20138 8.18347 2.98059C8.04899 2.89655 7.59008 2.50237 7.45119 2.56022C7.11491 2.70038 6.73513 2.79694 6.39885 2.93705C6.39885 2.82042 6.38469 2.71088 6.36782 2.60269C7.04169 2.30433 7.75471 2.09686 8.49172 1.98619L9.15191 2.2515L9.61803 2.80467L10.0832 3.28434L10.4899 3.41536L11.1358 2.80622L10.9692 2.37136V1.98047C12.2465 2.166 13.4528 2.64253 14.5093 3.37734C14.3203 3.39427 14.1126 3.42206 13.8783 3.45187C13.7815 3.39469 13.6573 3.36872 13.5518 3.32892C13.8579 3.98714 14.1772 4.63627 14.5017 5.28577C14.8482 5.97956 15.617 6.72375 15.752 7.45612C15.911 8.31938 15.8007 9.1035 15.8877 10.1191C15.9715 11.0972 16.9904 12.2085 16.9904 12.2085C16.9904 12.2085 17.4609 12.3687 17.8521 12.3129C17.4874 13.7558 16.7397 15.0792 15.6598 16.1591Z" fill="#56CCF2"/>
</svg>
